<svg xmlns="http://www.w3.org/2000/svg" viewBox="0 0 1572.84 1607.74"><defs><style>.cls-1{fill:#4cd436;}.cls-2{fill:none;}</style></defs><g id="Layer_2" data-name="Layer 2"><g id="Layer_1-2" data-name="Layer 1"><path class="cls-1" d="M217.9,907H364.26c79.29,0,159.25,29.82,159.25,117.91,0,55.57-32.53,92.84-84,108.42v1.36c61.66,5.42,108.42,54.89,108.42,117.91,0,105.71-98.26,134.17-187,134.17h-143Zm56.92,203.29h78.6c53.53,0,109.1-11.52,109.1-77.92,0-59-51.5-72.51-103-72.51h-84.7Zm0,223.62H371c55.57,0,115.87-22.36,115.87-83.35,0-67.08-56.92-87.41-114.52-87.41H274.82Z"/><path class="cls-1" d="M644.8,907h56.92v479.77H644.8Z"/><path class="cls-1" d="M1157.08,1005.93c-28.46-38.63-73.86-58.28-119.94-58.28-107.07,0-183,94.19-183,199.23,0,111.13,75.22,199.22,183,199.22,58.28,0,105-23.72,138.91-67.09l42.69,35.92c-42.69,57.59-105,84-181.6,84-137.56,0-244-106.39-244-252.07,0-141,101.65-252.08,244-252.08,65,0,128.75,22.36,169.41,75.21Z"/><path class="cls-1" d="M1298,907H1355v479.77H1298Z"/><polygon class="cls-1" points="570.53 217.9 570.53 313.43 643.16 313.43 643.16 289.13 893.77 289.13 893.77 709.75 643.16 709.45 643.16 685.16 570.53 685.46 570.53 780.95 966.42 780.95 966.42 217.9 570.53 217.9"/><rect class="cls-1" x="570.53" y="349.37" width="72.63" height="300.12"/><rect class="cls-1" x="498.95" y="349.37" width="71.58" height="71.58"/><rect class="cls-1" x="643.16" y="577.9" width="71.58" height="71.58"/><rect class="cls-2" x="145.26" y="776.99" width="72.63" height="72.63"/><rect class="cls-2" x="72.63" y="776.99" width="72.63" height="72.63"/><rect class="cls-2" y="776.99" width="72.63" height="72.63"/><rect class="cls-2" x="1500.21" y="768.38" width="72.63" height="72.63"/><rect class="cls-2" x="1427.58" y="768.38" width="72.63" height="72.63"/><rect class="cls-2" x="1354.94" y="768.38" width="72.63" height="72.63"/><rect class="cls-2" x="765.29" y="1464.13" width="72.63" height="72.63" transform="translate(2302.06 698.84) rotate(90)"/><rect class="cls-2" x="765.29" y="1535.11" width="72.63" height="72.63" transform="translate(2373.03 769.82) rotate(90)"/><rect class="cls-2" x="765.29" y="1391.5" width="72.63" height="72.63" transform="translate(2229.42 626.21) rotate(90)"/><rect class="cls-2" x="728.97" y="145.26" width="72.63" height="72.63" transform="translate(946.87 -583.71) rotate(90)"/><rect class="cls-2" x="728.97" y="72.63" width="72.63" height="72.63" transform="translate(874.24 -656.34) rotate(90)"/><rect class="cls-2" x="728.97" width="72.63" height="72.63" transform="translate(801.61 -728.97) rotate(90)"/><rect class="cls-2" x="217.89" y="217.89" width="1137.05" height="1173.61"/><rect class="cls-2" width="1572.84" height="1607.74"/></g></g></svg>